<?xml version="1.0" standalone="no"?>
<!DOCTYPE svg PUBLIC "-//W3C//DTD SVG 20010904//EN"
 "http://www.w3.org/TR/2001/REC-SVG-20010904/DTD/svg10.dtd">
<svg version="1.0" xmlns="http://www.w3.org/2000/svg"
 width="1380.000000pt" height="724.000000pt" viewBox="0 0 1380.000000 724.000000"
 preserveAspectRatio="xMidYMid meet">

<g transform="translate(0.000000,724.000000) scale(0.100000,-0.100000)"
fill="#ff3838" stroke="none">
<path d="M12130 6842 c-8 -5 -148 -15 -310 -21 -162 -7 -317 -13 -345 -15 -88
-4 -340 -40 -346 -49 -3 -4 -91 -18 -195 -30 -129 -15 -173 -23 -139 -25 43
-3 202 16 415 49 233 35 1047 76 1174 59 326 -46 573 -165 712 -343 106 -135
149 -262 148 -432 0 -110 -29 -280 -45 -270 -4 3 -11 -9 -14 -27 -25 -111
-194 -468 -262 -553 -27 -33 -94 -121 -150 -195 -175 -235 -378 -433 -707
-693 -199 -157 -274 -222 -181 -156 132 94 298 224 413 324 67 58 122 103 122
98 0 -4 41 33 91 82 246 244 492 581 598 820 134 302 177 532 135 732 -16 80
-29 110 -86 203 -60 100 -99 148 -162 198 -79 64 -249 157 -323 176 -200 52
-507 90 -543 68z"/>
<path d="M11058 6753 c7 -3 16 -2 19 1 4 3 -2 6 -13 5 -11 0 -14 -3 -6 -6z"/>
<path d="M10738 6723 c6 -2 18 -2 25 0 6 3 1 5 -13 5 -14 0 -19 -2 -12 -5z"/>
<path d="M10663 6713 c9 -2 25 -2 35 0 9 3 1 5 -18 5 -19 0 -27 -2 -17 -5z"/>
<path d="M10350 6675 c-259 -39 -529 -84 -715 -120 -71 -14 -150 -25 -175 -25
-52 0 -306 -50 -561 -110 -96 -23 -239 -55 -319 -71 -245 -51 -611 -137 -915
-216 -159 -41 -300 -78 -312 -80 -13 -3 -20 -9 -17 -14 3 -5 -7 -9 -23 -9 -39
-1 -821 -242 -803 -248 10 -4 436 114 590 163 286 92 696 204 785 215 33 4
119 22 190 40 384 95 659 161 735 175 121 23 428 94 475 111 22 7 57 14 78 14
50 0 217 26 325 49 106 24 392 64 400 57 3 -4 -5 -6 -18 -6 -13 0 -21 -2 -18
-5 3 -3 25 -3 49 1 24 4 37 10 29 13 -19 6 8 11 460 89 42 7 47 10 20 10 -19
0 -136 -15 -260 -33z"/>
<path d="M10698 6693 c6 -2 18 -2 25 0 6 3 1 5 -13 5 -14 0 -19 -2 -12 -5z"/>
<path d="M6355 5740 c-8 -13 5 -13 25 0 13 8 13 10 -2 10 -9 0 -20 -4 -23 -10z"/>
<path d="M5835 5576 c-143 -51 -278 -101 -299 -110 -22 -9 -41 -14 -44 -12 -6
6 -53 -12 -257 -102 -197 -86 -362 -152 -368 -146 -3 3 -95 -33 -439 -174 -21
-8 -38 -19 -38 -23 0 -5 -18 -18 -41 -29 -23 -12 -39 -24 -36 -26 3 -3 27 6
54 19 26 13 66 30 88 37 22 7 117 45 210 85 94 40 269 110 390 155 121 45 229
88 240 95 33 21 246 102 315 121 36 9 70 22 75 29 6 7 62 30 125 52 133 47
300 113 300 119 0 8 -20 2 -275 -90z"/>
<path d="M8208 5493 c12 -2 32 -2 45 0 12 2 2 4 -23 4 -25 0 -35 -2 -22 -4z"/>
<path d="M8645 5480 c42 -6 32 -8 -60 -9 -60 0 -130 -5 -155 -9 -33 -6 15 -10
175 -14 226 -6 296 -17 383 -62 41 -21 51 -38 15 -26 -37 12 -244 30 -319 29
-46 -2 -37 -4 41 -10 55 -4 129 -14 165 -23 197 -49 188 -46 200 -79 24 -65
24 -446 0 -408 -9 16 -13 6 -39 -101 -11 -46 -38 -127 -59 -181 l-39 -99 -224
-167 c-123 -93 -244 -187 -269 -210 -43 -40 -41 -40 40 15 47 32 137 96 200
143 63 48 124 92 134 100 17 13 18 13 11 0 -5 -8 10 1 33 19 23 19 42 30 42
25 0 -4 5 -1 10 7 24 37 6 -12 -29 -81 -55 -106 -130 -221 -140 -215 -5 3 -26
-16 -47 -42 -21 -26 -56 -68 -78 -93 -23 -25 -70 -81 -106 -125 -36 -43 -135
-149 -220 -235 -85 -85 -132 -133 -104 -106 28 26 58 49 67 51 25 3 155 125
272 256 183 203 334 417 431 612 16 32 34 56 40 54 7 -3 22 6 35 20 12 13 18
24 14 24 -5 0 19 29 55 65 35 35 67 62 71 59 9 -5 93 95 114 136 12 23 12 27
-1 27 -8 0 -12 -2 -10 -5 6 -5 -210 -228 -245 -253 l-27 -19 34 104 c19 58 41
147 51 198 19 111 23 345 6 402 -7 22 -11 41 -9 43 1 2 22 -3 45 -12 55 -19
45 -5 -16 24 -27 12 -57 36 -69 54 -26 39 -88 84 -146 104 -28 10 -93 16 -183
18 -93 2 -123 1 -90 -5z m415 -943 c0 -2 -10 -12 -22 -23 l-23 -19 19 23 c18
21 26 27 26 19z m-330 -467 c-43 -54 -49 -51 -9 5 18 25 34 43 37 40 2 -2 -10
-22 -28 -45z m-370 -413 c0 -2 -19 -21 -42 -42 l-43 -40 40 43 c36 39 45 47
45 39z"/>
<path d="M8213 5443 c26 -2 67 -2 90 0 23 2 2 3 -48 3 -49 0 -68 -1 -42 -3z"/>
<path d="M8088 5433 c12 -2 30 -2 40 0 9 3 -1 5 -23 4 -22 0 -30 -2 -17 -4z"/>
<path d="M7190 5341 c-374 -90 -859 -250 -940 -310 -24 -17 -178 -87 -248
-112 l-27 -9 30 25 c26 22 16 20 -76 -18 -440 -183 -958 -443 -1349 -676 -80
-47 -165 -94 -189 -104 -44 -18 -216 -131 -228 -149 -7 -12 89 40 234 126 156
93 224 129 548 289 165 81 305 151 311 155 6 4 44 29 85 57 82 55 371 188 513
237 50 17 201 75 336 128 332 131 531 199 770 261 69 18 126 36 128 40 2 5 10
5 19 2 12 -5 14 -3 8 7 -6 10 -1 12 21 7 16 -3 22 -3 14 0 -15 6 102 44 147
47 11 0 19 4 17 8 -2 3 2 9 8 11 32 13 -26 3 -132 -22z"/>
<path d="M8108 5286 c-32 -12 -64 -28 -70 -35 -9 -8 1 -7 27 4 22 9 59 24 83
32 23 8 42 17 42 19 0 8 -27 2 -82 -20z"/>
<path d="M9067 5255 c3 -22 7 -42 9 -44 8 -9 2 45 -6 64 -7 14 -8 8 -3 -20z"/>
<path d="M7760 5125 c-14 -8 -20 -14 -15 -14 6 0 21 6 35 14 14 8 21 14 15 14
-5 0 -21 -6 -35 -14z"/>
<path d="M9377 5060 c3 -36 7 -67 9 -69 8 -8 2 84 -6 109 -6 16 -7 1 -3 -40z"/>
<path d="M7680 5090 c-8 -5 -10 -10 -5 -10 6 0 17 5 25 10 8 5 11 10 5 10 -5
0 -17 -5 -25 -10z"/>
<path d="M7610 5060 c-8 -5 -10 -10 -5 -10 6 0 17 5 25 10 8 5 11 10 5 10 -5
0 -17 -5 -25 -10z"/>
<path d="M4280 4970 c-8 -5 -10 -10 -5 -10 6 0 17 5 25 10 8 5 11 10 5 10 -5
0 -17 -5 -25 -10z"/>
<path d="M9371 4964 c0 -11 3 -14 6 -6 3 7 2 16 -1 19 -3 4 -6 -2 -5 -13z"/>
<path d="M3965 4835 c-16 -8 -131 -62 -253 -120 -231 -108 -447 -221 -637
-333 -123 -73 -335 -211 -335 -219 0 -9 253 128 400 217 271 163 596 341 630
344 18 2 240 114 240 121 0 8 -13 5 -45 -10z"/>
<path d="M5532 4700 c-84 -40 -112 -61 -44 -33 79 33 150 73 129 73 -2 0 -40
-18 -85 -40z"/>
<path d="M6969 4699 l-24 -20 28 17 c15 9 27 18 27 20 0 8 -8 4 -31 -17z"/>
<path d="M6850 4621 c-50 -15 -332 -191 -514 -321 -102 -72 -186 -134 -186
-137 0 -2 36 20 80 51 83 58 102 68 79 39 -8 -9 24 9 71 42 235 163 271 186
289 190 17 3 189 112 216 136 11 11 0 10 -35 0z m-350 -225 c0 -8 -171 -128
-176 -123 -3 2 35 32 83 65 92 64 93 65 93 58z"/>
<path d="M12249 4403 c-13 -16 -12 -17 4 -4 16 13 21 21 13 21 -2 0 -10 -8
-17 -17z"/>
<path d="M11689 3983 c-13 -16 -12 -17 4 -4 16 13 21 21 13 21 -2 0 -10 -8
-17 -17z"/>
<path d="M11310 3763 c-591 -388 -650 -424 -1005 -620 -49 -27 -230 -131 -402
-231 -171 -100 -325 -187 -341 -194 -48 -21 -331 -182 -327 -186 2 -2 34 13
72 33 191 104 263 141 372 190 150 67 225 110 551 313 146 91 315 191 377 223
62 32 201 118 310 192 109 73 223 145 253 159 117 53 492 304 496 333 1 8 -1
15 -5 15 -4 0 -162 -102 -351 -227z"/>
<path d="M5593 3912 c-102 -58 -134 -80 -99 -66 14 6 17 4 11 -6 -4 -7 24 5
63 26 39 21 68 42 66 45 -2 4 12 17 31 29 30 18 43 30 33 30 -2 0 -49 -26
-105 -58z"/>
<path d="M3850 3827 c-69 -35 -231 -130 -360 -211 -129 -82 -263 -167 -297
-189 -35 -22 -63 -43 -63 -49 0 -5 -5 -6 -12 -2 -7 4 -8 3 -4 -4 4 -6 -5 -19
-19 -28 -14 -9 -23 -19 -20 -22 2 -3 36 15 73 40 157 104 434 279 459 290 16
6 74 41 130 76 55 36 104 64 107 63 11 -3 66 29 66 39 0 6 6 9 13 8 6 -2 11 3
9 11 -2 9 3 11 15 7 9 -4 14 -4 10 0 -4 4 1 13 11 20 29 22 12 15 -118 -49z"/>
<path d="M2182 3755 c-194 -167 -424 -432 -591 -680 -81 -121 -231 -382 -231
-401 0 -5 12 11 26 36 14 25 29 47 33 50 4 3 27 38 51 79 48 84 166 255 217
316 18 22 66 85 107 140 123 167 259 317 386 426 66 57 120 110 120 117 0 6
-2 12 -4 12 -2 0 -53 -43 -114 -95z"/>
<path d="M7970 3818 c-130 -73 -466 -272 -475 -281 -20 -19 85 39 260 143 99
58 194 112 212 119 26 11 76 52 62 51 -2 0 -29 -14 -59 -32z"/>
<path d="M5444 3824 c-18 -14 -18 -15 4 -4 12 6 22 13 22 15 0 8 -5 6 -26 -11z"/>
<path d="M5374 3784 c-18 -14 -18 -15 4 -4 12 6 22 13 22 15 0 8 -5 6 -26 -11z"/>
<path d="M5324 3754 c-18 -14 -18 -15 4 -4 12 6 22 13 22 15 0 8 -5 6 -26 -11z"/>
<path d="M5274 3724 c-18 -14 -18 -15 4 -4 12 6 22 13 22 15 0 8 -5 6 -26 -11z"/>
<path d="M5224 3694 c-18 -14 -18 -15 4 -4 12 6 22 13 22 15 0 8 -5 6 -26 -11z"/>
<path d="M5047 3592 c-138 -83 -216 -136 -117 -80 25 14 83 46 130 72 74 40
155 96 140 96 -3 0 -71 -40 -153 -88z"/>
<path d="M7378 3479 c-100 -50 -124 -58 -65 -20 60 39 7 21 -72 -23 -181 -103
-356 -209 -359 -217 -2 -5 -9 -6 -14 -3 -7 4 -8 2 -4 -4 5 -8 29 -1 79 24 108
54 537 286 537 290 0 6 3 7 -102 -47z"/>
<path d="M4854 3474 c-18 -14 -18 -15 4 -4 12 6 22 13 22 15 0 8 -5 6 -26 -11z"/>
<path d="M8109 3443 c-13 -16 -12 -17 4 -4 16 13 21 21 13 21 -2 0 -10 -8 -17
-17z"/>
<path d="M7915 3274 c-142 -124 -163 -146 -120 -119 48 29 206 158 200 163 -3
3 7 18 22 34 48 50 20 29 -102 -78z"/>
<path d="M4255 3136 c-369 -216 -396 -232 -388 -239 6 -7 -12 -11 -30 -8 -5 1
-6 -3 -2 -9 7 -12 57 12 165 80 41 26 174 107 295 180 239 143 230 138 224
144 -2 3 -121 -64 -264 -148z"/>
<path d="M2605 3052 c-77 -54 -208 -146 -292 -205 -84 -59 -163 -111 -177
-117 -14 -5 -76 -46 -138 -91 -236 -172 -528 -391 -528 -396 0 -3 15 6 33 19
43 33 509 362 525 372 6 4 12 5 12 2 0 -4 -55 -47 -122 -97 -68 -50 -127 -96
-133 -101 -24 -26 108 70 332 239 133 101 246 183 252 183 18 0 125 71 147 98
11 14 26 22 32 18 6 -3 14 -1 18 5 5 8 3 9 -6 4 -9 -6 -11 -4 -6 4 5 7 14 10
22 7 7 -3 16 0 20 6 5 7 2 8 -6 3 -9 -5 -11 -4 -6 4 4 6 15 10 24 9 9 -2 16 2
15 9 -1 6 20 26 47 43 28 18 50 36 50 42 0 5 6 6 13 2 6 -4 9 -4 5 1 -4 4 -3
14 3 22 6 7 10 13 8 13 -2 0 -67 -44 -144 -98z"/>
<path d="M7670 3080 c-30 -16 -105 -73 -165 -127 -112 -100 -539 -410 -557
-405 -5 1 -7 -2 -4 -7 4 -5 -2 -9 -11 -9 -19 1 -283 -152 -443 -257 -52 -34
-111 -72 -130 -84 -34 -20 -34 -21 -9 -21 26 0 179 86 179 100 0 17 308 207
347 214 45 9 893 628 856 625 -4 0 -33 -13 -63 -29z"/>
<path d="M6307 2909 c-43 -22 -83 -37 -89 -33 -7 5 -8 2 -3 -6 6 -10 4 -12 -9
-7 -9 4 -15 3 -12 -2 3 -5 -1 -12 -10 -15 -10 -4 -13 -2 -8 6 4 6 -44 -16
-107 -49 -273 -144 -624 -321 -879 -442 -151 -72 -293 -140 -315 -150 -39 -19
-39 -19 -9 -16 57 6 827 369 802 378 -7 2 5 12 27 22 22 10 128 59 235 111
107 51 242 115 300 142 58 27 119 61 135 76 39 34 35 33 -58 -15z"/>
<path d="M3705 2811 c-3 -5 -2 -12 3 -15 5 -3 9 1 9 9 0 17 -3 19 -12 6z"/>
<path d="M3396 2625 c-158 -96 -291 -177 -295 -181 -3 -4 0 -4 8 1 8 4 24 9
35 11 12 1 113 59 226 129 113 70 233 142 268 162 34 19 60 39 56 44 -3 5 -6
9 -7 9 -1 -1 -132 -79 -291 -175z"/>
<path d="M1322 2595 c-17 -37 -14 -45 4 -12 9 16 14 31 11 33 -2 2 -9 -7 -15
-21z"/>
<path d="M1262 2448 c-46 -121 -72 -206 -106 -348 -14 -57 -29 -107 -33 -110
-5 -4 -75 -58 -158 -120 -157 -119 -276 -213 -460 -364 -60 -49 -111 -91 -112
-91 -10 -5 33 -98 59 -130 61 -74 194 -141 314 -160 22 -3 1 6 -46 20 -141 43
-235 111 -276 199 -18 40 -20 53 -11 66 31 42 185 172 231 194 28 14 141 100
251 191 109 92 202 168 205 170 3 2 0 -38 -8 -88 -16 -107 -11 -506 7 -572 6
-22 15 -74 20 -115 5 -41 14 -76 20 -78 6 -2 27 -38 46 -79 46 -99 108 -198
156 -248 26 -28 42 -56 51 -95 l14 -54 89 -18 c49 -10 94 -17 100 -15 5 2 -32
12 -83 22 -99 19 -99 19 -116 87 -6 26 -5 27 17 19 31 -12 214 -131 202 -132
-19 -1 141 -39 230 -54 224 -37 904 -57 1225 -35 638 44 1200 152 2100 401
408 113 943 290 926 306 -2 2 -147 -41 -323 -96 -525 -165 -1068 -323 -1159
-336 -22 -4 -77 -18 -124 -32 -192 -57 -524 -121 -880 -169 -107 -14 -240 -32
-295 -40 -115 -16 -873 -31 -951 -19 -48 8 -47 8 56 22 58 7 157 25 220 39
172 39 619 170 587 173 -4 1 -105 -29 -225 -65 -119 -37 -236 -67 -259 -68
-22 0 -39 -5 -35 -10 3 -5 -5 -6 -18 -3 -13 3 -60 -2 -104 -13 -73 -17 -275
-50 -305 -50 -7 0 -10 3 -8 7 3 5 -79 8 -181 8 -287 0 -437 40 -611 159 -112
77 -108 69 -88 190 16 102 45 195 70 230 8 11 37 21 87 28 41 6 70 13 65 15
-6 2 -39 -1 -73 -5 -34 -5 -62 -6 -62 -2 0 9 94 144 142 205 l40 50 -51 -53
c-28 -30 -74 -88 -102 -131 l-50 -77 -110 -12 c-60 -6 -117 -16 -127 -21 -15
-9 -13 -10 8 -10 14 0 68 6 120 13 52 8 96 13 97 12 1 -1 -11 -36 -27 -78 -18
-45 -35 -116 -42 -173 l-12 -96 -34 38 c-47 53 -115 159 -141 217 -25 58 -25
54 -3 59 13 4 12 5 -5 6 -18 1 -24 13 -42 88 -44 190 -50 424 -16 673 12 86
19 109 38 125 12 11 29 29 37 40 13 17 12 17 -14 -3 -71 -55 -62 1 64 378 21
63 37 116 35 118 -2 2 -21 -43 -43 -100z"/>
<path d="M8631 2249 c-222 -110 -401 -202 -399 -205 12 -11 674 307 793 381
107 66 -27 6 -394 -176z"/>
<path d="M3064 2424 c-18 -14 -18 -15 4 -4 12 6 22 13 22 15 0 8 -5 6 -26 -11z"/>
<path d="M2952 2355 c-45 -31 -82 -58 -82 -60 0 -5 145 89 165 106 22 21 -6 5
-83 -46z"/>
<path d="M2730 2200 c-68 -50 -154 -105 -190 -124 -65 -34 -210 -132 -210
-142 0 -2 40 23 90 56 49 33 101 65 115 70 51 20 358 237 323 229 -2 0 -59
-40 -128 -89z"/>
<path d="M1439 2223 c-13 -16 -12 -17 4 -4 9 7 17 15 17 17 0 8 -8 3 -21 -13z"/>
<path d="M4781 2171 c-10 -7 -7 -9 12 -8 14 1 23 5 20 10 -6 9 -15 9 -32 -2z"/>
<path d="M1329 2143 c-13 -16 -12 -17 4 -4 16 13 21 21 13 21 -2 0 -10 -8 -17
-17z"/>
<path d="M6275 2141 c-6 -6 -116 -64 -245 -131 -352 -183 -487 -259 -487 -274
0 -13 4 -13 29 0 15 8 28 18 28 23 0 4 6 8 13 8 6 0 109 54 227 120 118 66
256 141 305 166 79 41 161 96 145 97 -4 0 -10 -4 -15 -9z m-695 -391 c-8 -5
-19 -10 -25 -10 -5 0 -3 5 5 10 8 5 20 10 25 10 6 0 3 -5 -5 -10z"/>
<path d="M1289 2113 c-13 -16 -12 -17 4 -4 16 13 21 21 13 21 -2 0 -10 -8 -17
-17z"/>
<path d="M1249 2083 c-13 -16 -12 -17 4 -4 16 13 21 21 13 21 -2 0 -10 -8 -17
-17z"/>
<path d="M4325 1973 c-110 -47 -211 -86 -225 -88 -14 -2 -61 -18 -105 -35
-364 -147 -941 -330 -1290 -410 -44 -11 -170 -42 -280 -70 -126 -32 -211 -49
-230 -45 -23 4 -27 3 -15 -6 11 -8 7 -9 -20 -5 -20 3 -30 2 -22 -2 8 -6 -7
-13 -45 -21 -32 -8 -65 -17 -73 -21 -9 -5 -86 -20 -171 -34 -140 -23 -227 -44
-190 -45 27 -2 307 51 511 95 668 146 1420 379 2113 655 139 56 275 119 252
117 -5 0 -100 -38 -210 -85z"/>
<path d="M7627 1810 c-163 -72 -358 -150 -432 -175 -133 -45 -243 -90 -195
-80 14 3 -4 -11 -40 -30 -36 -20 -56 -33 -45 -30 54 18 81 29 90 35 6 4 28 13
50 20 22 7 96 38 165 68 69 30 226 94 350 144 124 49 227 93 228 99 2 5 8 7
13 3 5 -3 9 0 9 6 0 7 7 9 16 6 10 -4 13 -2 8 6 -5 8 -2 9 10 5 11 -5 15 -3
10 5 -5 8 -1 9 12 4 10 -4 15 -4 11 1 -4 4 7 15 25 25 81 43 -8 7 -285 -112z"/>
<path d="M2145 1814 l-30 -26 33 22 c17 12 32 23 32 26 0 7 -4 5 -35 -22z"/>
<path d="M1897 1640 c-48 -39 -87 -75 -87 -81 0 -6 10 -2 23 8 39 30 162 143
157 143 -3 0 -45 -32 -93 -70z"/>
<path d="M5438 1674 c-27 -13 -48 -27 -48 -29 0 -3 23 6 50 20 28 14 50 28 50
30 0 7 1 7 -52 -21z"/>
<path d="M5297 1599 c-32 -16 -63 -27 -69 -23 -7 5 -8 2 -3 -6 6 -10 4 -12 -9
-7 -11 5 -15 3 -10 -5 5 -7 2 -9 -8 -5 -9 3 -51 -12 -95 -34 -212 -109 -538
-257 -783 -356 -102 -41 -216 -90 -255 -108 -38 -19 -146 -57 -240 -85 -93
-29 -195 -60 -225 -70 l-55 -18 43 -1 c47 -1 249 69 617 214 326 128 866 362
840 364 -5 1 63 37 153 81 89 43 162 81 162 84 0 8 3 9 -63 -25z"/>
<path d="M6460 1339 c-30 -11 -95 -29 -144 -41 -48 -11 -96 -28 -106 -38 -10
-10 -33 -21 -50 -25 -24 -5 -29 -10 -19 -16 12 -7 12 -9 0 -9 -8 0 -12 -2 -9
-5 5 -5 162 50 323 114 102 40 106 56 5 20z"/>
<path d="M833 1113 c9 -2 23 -2 30 0 6 3 -1 5 -18 5 -16 0 -22 -2 -12 -5z"/>
<path d="M3320 785 c-19 -7 -28 -13 -20 -13 8 0 31 6 50 13 19 7 28 13 20 13
-8 0 -31 -6 -50 -13z"/>
</g>
</svg>
