<?xml version="1.0" standalone="no"?>
<!DOCTYPE svg PUBLIC "-//W3C//DTD SVG 20010904//EN"
 "http://www.w3.org/TR/2001/REC-SVG-20010904/DTD/svg10.dtd">
<svg version="1.0" xmlns="http://www.w3.org/2000/svg"
 width="697.000000pt" height="618.000000pt" viewBox="0 0 697.000000 618.000000"
 preserveAspectRatio="xMidYMid meet">

<g transform="translate(0.000000,618.000000) scale(0.100000,-0.100000)"
fill="#2F2F2F" stroke="none">
<path d="M4830 6129 c-240 -88 -409 -159 -743 -310 -202 -92 -341 -149 -360
-149 -18 0 -99 13 -182 30 -260 51 -381 63 -615 64 -235 0 -339 -10 -560 -54
-546 -109 -1071 -371 -1608 -804 -103 -83 -168 -147 -197 -196 -5 -8 34 24 86
70 160 142 365 300 389 300 4 0 4 -15 2 -32 -5 -30 -3 -32 12 -19 9 7 25 32
35 55 10 22 31 53 47 67 30 28 362 214 498 280 107 52 127 51 189 -11 27 -27
51 -50 53 -50 2 0 4 14 4 32 0 24 -10 40 -42 70 -23 21 -39 38 -36 38 3 0 22
7 43 16 37 15 38 15 32 -5 -3 -12 -4 -21 -3 -21 10 0 194 79 248 106 108 55
320 102 563 125 257 25 739 -10 949 -68 l59 -17 -34 -29 c-19 -16 -63 -43 -99
-60 -74 -36 -93 -37 -425 -22 -161 7 -203 5 -273 -9 -45 -9 -94 -22 -107 -28
-27 -12 -35 -34 -9 -24 9 4 60 14 113 22 76 13 136 15 286 10 105 -4 210 -10
234 -14 41 -7 42 -8 25 -23 -38 -32 -659 -464 -693 -481 -33 -17 -56 -18 -301
-12 -146 4 -268 11 -271 16 -3 5 -36 2 -75 -6 -38 -8 -139 -22 -224 -31 -275
-27 -470 -75 -740 -181 -173 -69 -235 -100 -362 -183 -44 -28 -78 -45 -78 -38
0 7 6 19 13 26 10 11 7 12 -13 6 -45 -13 -84 -37 -127 -76 -24 -22 -47 -39
-53 -39 -6 0 -54 -20 -108 -44 -53 -25 -117 -48 -142 -52 -28 -4 -68 -23 -106
-49 -33 -23 -75 -47 -92 -54 -25 -11 -32 -19 -32 -42 l0 -28 46 19 c25 11 71
27 102 36 31 9 63 19 70 21 6 3 12 -1 12 -8 0 -8 -31 -31 -68 -51 -51 -28 -63
-38 -49 -43 34 -13 66 6 149 88 83 82 85 83 433 263 193 99 388 197 435 217
176 74 383 132 580 161 196 30 369 36 290 11 -10 -3 -33 -24 -51 -46 -36 -46
-62 -61 -138 -80 l-54 -14 34 -7 c69 -14 126 10 185 78 80 95 84 95 384 92
142 -2 262 -6 266 -11 12 -11 -74 -93 -108 -103 -22 -7 -33 -18 -42 -45 -31
-91 -74 -121 -296 -208 -69 -27 -152 -61 -185 -75 -86 -37 -112 -34 -189 19
-113 77 -155 84 -326 55 -108 -18 -106 -17 -85 -40 23 -25 37 -25 108 0 106
37 208 18 292 -54 34 -29 37 -24 -52 -77 -50 -29 -53 -30 -53 -10 0 27 -16 26
-85 -5 -46 -21 -61 -24 -80 -16 -19 9 -27 7 -46 -15 -53 -57 -122 -65 -279
-34 -140 28 -269 45 -277 37 -4 -3 0 -13 8 -22 11 -10 57 -19 157 -27 185 -17
197 -26 70 -54 l-75 -16 -39 27 c-45 31 -57 32 -80 9 -17 -17 -15 -18 22 -29
48 -14 44 -16 -115 -49 -141 -29 -287 -43 -258 -25 39 25 133 50 188 50 l59 0
-12 25 c-9 20 -8 31 2 50 9 16 10 29 4 35 -11 11 -173 -39 -243 -76 -28 -14
-116 -40 -202 -59 -167 -36 -285 -80 -293 -107 -2 -10 -12 -18 -23 -18 -10 0
-35 -5 -55 -11 l-38 -10 0 -184 c0 -102 3 -185 8 -185 4 0 14 5 22 10 12 8 12
12 2 18 -8 6 17 21 74 44 74 30 91 34 115 24 16 -6 29 -13 29 -16 0 -3 -21
-16 -48 -30 -31 -17 -48 -32 -50 -47 -3 -17 -14 -25 -45 -33 -23 -6 -57 -16
-74 -21 l-33 -11 0 -110 c0 -110 0 -111 20 -93 25 23 120 34 120 14 0 -8 -15
-24 -33 -37 -75 -52 -73 -48 -41 -75 l29 -25 -48 -7 -47 -7 2 -1062 3 -1061
24 -44 c26 -49 34 -131 14 -138 -9 -3 -13 8 -13 35 0 27 -5 42 -15 46 -13 5
-15 -9 -14 -105 1 -83 5 -109 14 -105 22 8 51 -21 64 -66 16 -54 53 -122 147
-266 41 -62 74 -119 74 -126 0 -7 -13 -28 -30 -46 -39 -44 -38 -58 6 -66 28
-5 49 -1 93 19 31 14 74 28 95 31 49 7 66 23 173 168 l87 118 62 -61 c41 -41
64 -57 69 -49 5 7 -14 34 -50 70 -62 63 -63 61 18 75 44 7 40 25 -5 25 -30 0
-30 1 -24 38 6 34 3 40 -36 74 l-43 36 35 7 c19 3 48 1 64 -5 25 -9 31 -8 44
11 10 15 17 18 25 10 19 -19 82 -13 112 11 l27 21 -7 -24 c-4 -13 -18 -49 -31
-79 -21 -48 -22 -52 -4 -30 11 14 27 48 36 75 15 46 38 84 156 257 21 32 80
101 130 153 85 89 92 94 108 80 13 -12 20 -13 25 -5 4 7 21 10 38 7 l31 -4
-29 23 c-16 13 -27 25 -25 27 12 11 75 39 171 77 57 23 124 53 148 67 124 72
225 111 331 129 25 4 252 8 505 9 493 2 639 11 1080 70 633 85 923 153 1560
364 399 132 523 187 685 304 183 133 242 200 284 323 13 38 31 84 39 101 23
45 79 89 135 107 52 18 75 37 86 72 3 11 61 65 129 121 68 55 147 129 177 164
l55 64 -55 -48 c-115 -100 -209 -175 -379 -303 l-175 -133 -32 48 c-18 26 -53
66 -78 88 -44 39 -163 109 -171 101 -3 -2 17 -20 43 -40 26 -19 80 -66 120
-103 112 -104 114 -100 -133 -252 -550 -338 -1184 -575 -1830 -682 -364 -61
-664 -84 -1082 -84 -189 0 -343 -3 -343 -8 0 -26 663 -22 958 6 575 54 1082
175 1583 375 211 85 560 258 762 380 93 56 170 100 172 98 1 -2 -4 -28 -12
-58 -14 -57 -41 -105 -101 -178 -115 -141 -435 -301 -922 -461 -700 -229 -969
-284 -1890 -387 -166 -19 -1180 -33 -1180 -17 0 5 48 46 107 90 129 96 237
201 315 304 31 42 73 90 92 107 22 19 30 32 22 34 -11 2 -8 24 14 102 16 55
35 105 43 111 18 13 524 78 538 70 25 -16 635 210 869 321 172 83 226 118 436
285 241 192 195 173 393 160 93 -6 184 -11 202 -10 72 1 -8 18 -166 34 -88 10
-162 19 -164 21 -2 1 33 48 77 103 67 82 272 405 272 427 0 3 -7 4 -15 0 -12
-4 -14 0 -10 17 3 12 14 62 25 111 10 49 25 95 32 102 7 7 67 27 133 44 123
32 206 66 212 86 2 7 -6 23 -19 37 l-23 26 -103 -11 c-57 -5 -106 -7 -109 -4
-8 8 24 55 180 263 167 223 215 294 315 469 198 346 254 506 256 724 1 115 1
117 -37 192 -84 170 -227 242 -482 242 -279 0 -485 -77 -1065 -402 -124 -70
-247 -137 -274 -151 -54 -28 -43 -29 -230 28 -38 11 -71 19 -73 17 -2 -1 43
-20 100 -41 56 -21 106 -41 111 -46 12 -10 -64 -63 -126 -87 -41 -16 -235 -79
-304 -100 -7 -2 -9 8 -6 27 6 43 -16 99 -49 123 -16 12 -29 25 -29 29 0 11
555 287 698 347 68 29 269 107 445 173 177 66 326 125 332 130 24 24 -72 3
-195 -42z m839 -54 c134 -32 229 -104 279 -214 31 -67 41 -201 23 -308 -29
-164 -132 -402 -276 -633 -72 -116 -108 -154 -137 -146 -19 4 -19 4 -2 -15 16
-18 15 -22 -41 -106 -193 -293 -291 -413 -334 -413 -13 0 -26 51 -41 155 -16
109 -21 128 -32 117 -5 -5 -3 -49 7 -112 21 -141 20 -158 -7 -170 -13 -5 -79
-16 -148 -25 -130 -18 -150 -24 -187 -58 -32 -29 -29 -61 8 -87 38 -28 47 -19
26 25 -23 47 -22 54 10 66 36 13 283 51 298 45 19 -7 25 -58 10 -87 -8 -14
-28 -32 -46 -39 -28 -12 -30 -15 -15 -26 15 -11 10 -23 -52 -120 -38 -60 -84
-138 -103 -174 -50 -97 -126 -168 -233 -219 -49 -23 -86 -44 -84 -47 3 -2 40
6 82 20 42 13 78 21 81 17 8 -14 -149 -231 -165 -228 -11 2 -16 23 -21 92 -10
143 -42 199 -203 361 l-131 131 380 73 c209 40 385 77 390 83 16 15 -64 2
-397 -63 -166 -33 -318 -60 -336 -60 -48 0 -66 13 -107 75 -106 159 -251 227
-618 293 l-99 17 89 100 c98 112 332 404 381 477 41 60 123 225 152 306 l23
62 -17 112 -18 112 23 19 c17 13 33 17 56 14 27 -5 33 -2 33 12 0 26 16 37
203 150 359 215 690 360 942 414 93 20 273 21 354 2z m-2122 -612 c56 -26 63
-55 29 -119 -32 -60 -43 -69 -349 -282 -103 -72 -199 -133 -215 -136 -39 -8
-257 37 -257 53 0 23 567 421 695 488 33 17 55 16 97 -4z m470 -78 c32 -23 45
-72 34 -132 -17 -87 -58 -189 -114 -285 -70 -119 -112 -158 -171 -158 -14 0
-28 -5 -32 -12 -5 -8 5 -9 39 -5 31 4 47 3 47 -4 0 -6 -86 -114 -191 -240
l-191 -229 -40 36 c-51 46 -109 71 -199 89 -39 7 -76 18 -81 23 -7 7 11 36 52
88 34 43 57 80 51 82 -5 2 -17 37 -27 78 -13 61 -14 80 -4 104 16 38 695 547
754 566 53 16 48 16 73 -1z m-167 -9 c0 -2 -80 -60 -178 -129 -98 -69 -254
-184 -347 -256 -94 -72 -178 -131 -188 -131 -23 0 -57 18 -57 30 0 5 13 16 28
24 15 8 131 94 257 191 259 199 297 222 483 274 1 1 2 -1 2 -3z m-1007 -467
c62 -13 107 -27 107 -33 0 -15 -363 -186 -395 -186 -78 0 -72 34 23 132 68 72
116 106 147 108 6 0 58 -10 118 -21z m223 -80 c22 -24 36 -9 -203 -222 l-121
-107 -32 56 c-18 30 -30 58 -27 61 3 3 75 56 159 119 162 121 189 132 224 93z
m79 -107 c8 -63 -6 -96 -55 -128 -22 -15 -40 -29 -40 -31 0 -2 16 -1 36 3 l36
7 -20 -40 c-26 -49 -57 -64 -121 -56 -54 6 -101 -13 -101 -42 0 -19 -49 -40
-63 -26 -6 6 -2 22 12 44 26 43 26 45 -1 49 -18 2 5 28 131 140 85 75 160 134
167 131 7 -2 15 -26 19 -51z m-384 -9 c-30 -27 -66 -56 -80 -65 -28 -19 -101
-25 -101 -8 0 9 205 118 225 119 5 1 -15 -20 -44 -46z m-276 -160 c19 -9 35
-21 35 -27 -1 -12 -104 -92 -155 -122 -28 -15 -35 -16 -75 -2 -24 8 -45 19
-47 24 -2 5 10 31 26 56 50 79 138 108 216 71z m190 -14 c10 -31 -5 -78 -29
-94 -22 -15 -239 -95 -255 -95 -5 0 -11 7 -14 15 -4 9 28 39 102 94 157 115
182 125 196 80z m-425 -28 c-13 -24 -56 -55 -112 -81 -43 -20 -148 -28 -148
-11 0 14 218 108 258 110 9 1 10 -4 2 -18z m529 -107 c-10 -20 -36 -40 -86
-65 -40 -20 -73 -33 -73 -30 0 3 32 38 72 78 62 62 74 71 86 59 12 -12 12 -18
1 -42z m528 -19 c45 -23 103 -79 91 -90 -4 -4 -412 -34 -415 -31 -8 7 62 119
85 137 24 19 35 21 107 15 56 -4 95 -13 132 -31z m-297 17 c0 -19 -61 -101
-91 -125 -31 -23 -95 -47 -126 -47 -19 0 -16 24 8 80 23 54 49 76 106 89 49
12 103 13 103 3z m-860 -23 c0 -18 -74 -108 -94 -115 -15 -5 -29 3 -54 31 -31
33 -33 39 -19 52 29 30 167 56 167 32z m121 -5 c17 -8 29 -20 27 -26 -4 -12
-167 -82 -175 -75 -7 8 44 84 69 101 28 20 41 20 79 0z m339 7 c0 -11 -94 -97
-122 -112 -14 -8 -23 -4 -43 17 -14 15 -25 30 -25 35 0 4 26 17 58 28 31 12
66 26 77 31 26 12 55 12 55 1z m-809 -33 c13 -25 1 -38 -68 -69 -31 -15 -47
-17 -67 -9 -23 8 -25 12 -15 34 11 24 86 65 121 66 10 0 23 -10 29 -22z m944
-68 c-31 -62 -59 -80 -135 -89 -70 -9 -76 0 -27 46 34 33 167 104 179 96 4 -2
-3 -26 -17 -53z m-740 -30 c-3 -5 -18 -13 -35 -18 -29 -11 -30 -10 -40 29 -15
56 -5 64 40 28 22 -18 37 -35 35 -39z m396 44 c15 -19 0 -91 -29 -129 -37 -51
-88 -69 -212 -73 -64 -2 -124 -3 -134 -1 -14 3 4 23 75 80 112 90 132 102 190
123 57 20 93 20 110 0z m-871 1 c0 -3 -35 -23 -78 -44 -44 -22 -86 -51 -96
-66 -21 -31 -16 -41 12 -26 28 15 29 15 41 -19 l10 -30 -82 6 c-69 6 -85 4
-96 -10 -12 -14 -8 -16 39 -16 41 0 51 -3 47 -14 -4 -9 4 -16 21 -21 47 -12
53 -23 37 -62 l-15 -34 42 30 c51 37 65 39 80 6 21 -47 -22 -85 -141 -127 -63
-22 -215 -36 -224 -21 -3 5 -11 41 -17 79 -12 76 -18 63 61 126 22 17 -8 6
-81 -32 -63 -33 -118 -60 -122 -60 -5 0 -8 14 -8 30 0 25 -6 33 -35 47 l-35
17 27 23 c35 28 67 29 104 2 31 -22 37 -16 14 15 -21 28 -19 44 7 52 17 5 27
0 43 -20 11 -14 31 -26 43 -26 22 0 218 115 257 151 27 24 84 48 118 49 15 0
27 -2 27 -5z m1805 -66 c-57 -58 -70 -64 -95 -39 -19 19 -22 19 -50 5 -37 -19
-93 -19 -156 0 -27 8 -64 15 -81 15 -40 0 -45 20 -5 21 15 0 110 9 212 18 102
10 192 19 200 20 8 0 -4 -17 -25 -40z m-2053 -9 c-53 -48 -97 -58 -142 -35
-17 9 -29 20 -25 23 5 5 178 48 205 51 3 0 -15 -18 -38 -39z m858 20 c0 -16
-78 -63 -91 -55 -7 5 4 18 32 36 48 30 59 34 59 19z m1526 -5 c180 -32 328
-99 421 -193 49 -50 92 -116 81 -127 -3 -4 -48 7 -100 23 -124 40 -231 61
-344 69 l-94 6 0 29 c0 65 -43 106 -145 138 -22 7 -48 17 -58 22 -17 9 -16 10
5 28 29 24 111 26 234 5z m-2191 -74 c-10 -70 -27 -70 -40 1 -6 34 -5 39 16
47 13 5 26 7 28 5 1 -1 0 -26 -4 -53z m3936 48 c19 -7 38 -15 43 -20 14 -13
-68 -48 -173 -72 -114 -27 -123 -22 -69 39 53 60 122 78 199 53z m-3423 -61
c-37 -54 -101 -108 -113 -96 -8 8 14 83 33 107 18 25 69 49 105 50 15 1 10
-11 -25 -61z m-943 32 c-23 -25 -66 -32 -130 -22 l-50 8 90 16 c50 8 94 16 99
17 5 0 1 -8 -9 -19z m2438 -15 c19 -8 49 -26 66 -41 l31 -26 -22 -40 c-51 -90
-115 -102 -195 -35 -29 23 -52 47 -52 53 -1 18 96 104 117 104 11 0 35 -7 55
-15z m-479 -4 c13 -5 -7 -12 -65 -25 -46 -10 -95 -20 -108 -23 -32 -8 -20 12
23 38 32 19 112 25 150 10z m-1144 -16 c0 -55 -60 -123 -126 -145 -35 -12
-147 -10 -159 2 -9 8 5 74 19 92 6 9 57 27 116 40 127 29 150 31 150 11z
m1390 6 c0 -32 -55 -36 -80 -6 -11 13 -6 15 34 15 25 0 46 -4 46 -9z m-2537
-42 c-20 -34 -87 -78 -99 -66 -9 9 85 96 104 97 11 0 9 -8 -5 -31z m2456 7
c28 -25 27 -33 -9 -51 -35 -18 -89 -19 -192 -3 -67 10 -76 13 -65 26 6 8 30
24 52 34 55 25 183 22 214 -6z m-793 -132 c-6 -30 -46 -74 -67 -74 -13 0 -10
72 4 100 14 28 60 44 65 22 2 -8 1 -29 -2 -48z m114 41 c-25 -12 -47 -22 -48
-20 -2 2 -1 13 3 24 5 17 14 21 48 21 l42 -1 -45 -24z m370 -15 c103 -9 153
-20 163 -37 3 -5 -52 -41 -121 -80 l-127 -72 -3 45 -3 44 -44 0 c-32 0 -71
-13 -147 -50 -56 -28 -109 -49 -117 -48 -8 2 -18 16 -23 33 -10 40 0 49 142
124 91 49 121 60 145 56 17 -3 77 -10 135 -15z m2247 -56 c-7 -71 -39 -151
-80 -199 -24 -29 -124 -92 -132 -83 -4 4 207 347 214 348 2 0 1 -30 -2 -66z
m-3079 47 c10 -6 4 -14 -25 -32 -30 -19 -52 -24 -105 -24 -92 0 -106 17 -36
43 54 22 143 28 166 13z m98 -30 c-35 -36 -75 -54 -112 -49 -26 3 -20 8 51 45
44 22 82 39 84 37 3 -2 -8 -17 -23 -33z m131 -22 c-8 -62 -34 -82 -109 -87
-42 -3 -60 -1 -53 6 28 29 149 122 158 122 6 0 7 -17 4 -41z m1585 16 c105
-16 260 -63 265 -81 4 -12 -252 -64 -441 -90 -61 -9 -137 -22 -170 -30 -32 -8
-60 -13 -63 -11 -2 3 8 19 22 36 17 20 36 31 53 31 14 0 45 9 69 21 l43 21
-21 39 c-23 46 -20 55 24 68 47 14 111 13 219 -4z m-2776 -23 c14 -9 34 -47
34 -64 0 -8 -6 -23 -14 -33 -13 -18 -16 -15 -42 36 -16 29 -30 57 -32 62 -5 9
40 9 54 -1z m630 -22 c-5 -28 -4 -30 14 -20 51 27 3 -69 -54 -108 -17 -12 -51
-24 -76 -27 l-45 -6 55 49 54 49 -32 8 c-54 11 -37 54 30 72 61 16 61 16 54
-17z m1494 15 l25 -13 -25 -10 c-127 -46 -190 -65 -197 -58 -4 4 0 12 9 17 9
5 36 25 60 43 47 38 87 44 128 21z m-2392 -25 c23 -10 42 -23 41 -27 0 -13
-59 -56 -66 -49 -3 3 -1 17 5 31 16 35 -7 43 -62 24 -34 -12 -43 -21 -54 -54
-7 -21 -14 -41 -16 -43 -3 -2 -18 4 -36 13 l-31 16 18 32 c43 73 119 94 201
57z m1014 -16 c-2 -10 -13 -29 -25 -42 -22 -23 -87 -65 -87 -56 0 3 21 32 47
65 45 58 71 71 65 33z m1513 16 c9 -15 -86 -53 -98 -41 -13 13 -11 15 43 34
25 8 46 16 47 16 1 1 5 -4 8 -9z m-3024 -18 c-5 -9 -18 -25 -29 -36 -18 -15
-26 -16 -56 -6 -42 13 -72 6 -86 -21 -6 -10 -15 -19 -21 -19 -16 0 9 38 36 56
37 24 95 43 133 44 28 0 31 -2 23 -18z m1689 -34 c0 -4 -18 -20 -40 -35 -38
-24 -42 -25 -57 -10 -9 9 -15 18 -12 20 2 2 19 15 37 30 28 23 36 25 52 14 11
-6 20 -15 20 -19z m748 16 c-7 -35 -55 -58 -131 -62 l-72 -3 25 20 c32 27 117
60 153 60 21 1 28 -3 25 -15z m-1258 -42 c0 -72 -16 -87 -130 -123 -99 -30
-160 -35 -167 -12 -5 13 66 52 130 73 25 8 45 24 58 44 16 26 72 62 102 65 4
1 7 -20 7 -47z m2709 19 c38 -24 29 -208 -16 -321 -30 -74 -95 -186 -130 -224
-22 -24 -32 -26 -111 -28 l-87 -2 73 -3 c39 -2 72 -8 72 -12 0 -24 -99 -138
-167 -192 -167 -133 -291 -199 -538 -285 -82 -29 -146 -53 -142 -53 18 -2 170
41 254 70 256 90 476 247 649 462 120 151 176 274 194 437 6 52 12 96 14 98
10 9 70 -33 118 -82 98 -101 158 -228 158 -335 0 -87 -8 -91 -192 -91 -92 0
-148 -4 -148 -10 0 -6 56 -10 149 -10 175 0 185 -5 156 -70 -21 -46 -123 -147
-215 -212 -143 -101 -401 -237 -545 -287 -241 -86 -633 -154 -930 -163 -104
-3 -134 9 -162 68 -15 30 -15 39 -4 67 7 18 16 44 18 59 5 25 1 30 -41 48 -25
10 -46 22 -46 24 0 21 69 77 110 91 44 15 50 20 50 45 0 34 42 73 97 90 21 7
42 16 48 21 5 5 28 9 52 9 24 0 71 11 105 25 34 14 80 25 103 25 56 0 118 23
163 60 20 16 45 30 56 30 17 0 14 5 -14 28 l-34 29 58 214 c32 118 64 223 71
234 10 17 65 30 356 86 372 72 377 73 398 60z m-1974 -31 c-15 -25 -70 -39
-121 -31 l-49 7 85 20 c47 11 87 19 89 18 1 -1 0 -8 -4 -14z m145 -32 c-25
-21 -36 -22 -45 -8 -4 6 4 19 17 29 17 15 26 17 37 8 11 -9 9 -14 -9 -29z
m1030 -4 c0 -12 -6 -26 -13 -32 -17 -14 -97 -27 -97 -16 0 5 21 28 47 50 49
43 63 42 63 -2z m-129 15 c-87 -72 -211 -123 -300 -123 -66 0 -141 18 -141 34
0 14 93 68 145 84 76 23 81 24 205 25 l115 0 -24 -20z m-2426 1 c3 -5 -20 -17
-52 -26 -32 -9 -62 -19 -67 -22 -5 -2 -7 1 -4 8 10 32 108 64 123 40z m-331
-61 c14 -11 26 -24 26 -28 0 -8 -130 -24 -137 -17 -8 8 50 66 67 66 9 0 29 -9
44 -21z m315 -94 c-22 -47 -73 -89 -96 -81 -7 3 -17 -10 -23 -30 -22 -65 -77
-82 -130 -38 -24 21 -28 29 -19 40 9 11 14 11 32 -1 37 -26 44 -18 51 55 l7
70 29 -15 c40 -21 45 -20 108 26 31 22 58 36 60 30 2 -5 -7 -30 -19 -56z m966
48 c0 -12 -62 -63 -77 -63 -16 0 -7 25 19 52 27 28 58 34 58 11z m358 -15
c-10 -17 -21 -31 -26 -30 -34 4 -117 27 -117 32 0 4 33 12 73 17 39 6 76 11
80 12 5 0 1 -13 -10 -31z m-693 8 c0 -22 -26 -44 -61 -51 -45 -10 -44 -2 4 32
48 36 57 39 57 19z m1880 0 c0 -17 -45 -84 -73 -107 -24 -19 -66 -33 -75 -25
-7 8 28 82 47 100 21 19 73 46 89 46 6 0 12 -6 12 -14z m70 5 c0 -16 -63 -216
-71 -225 -8 -9 -67 32 -68 47 -1 5 27 49 61 98 56 81 78 104 78 80z m-205 -43
c-40 -77 -60 -83 -145 -38 -51 26 -53 29 -30 34 125 30 186 43 188 41 2 -2 -4
-18 -13 -37z m1824 20 c-46 -88 -167 -253 -233 -317 -67 -65 -79 -72 -104 -66
-15 4 -29 9 -31 11 -8 7 129 202 183 261 51 56 157 133 183 133 11 0 11 -4 2
-22z m-3670 -2 c-11 -11 -192 -86 -197 -82 -16 16 53 59 123 76 33 9 81 12 74
6z m701 -38 l45 -20 -39 -34 -39 -34 -43 40 c-24 22 -46 40 -49 40 -18 0 -75
-31 -75 -40 0 -6 15 -17 34 -25 61 -26 52 -35 -33 -35 -50 0 -81 4 -81 11 0
21 86 100 125 114 46 16 90 11 155 -17z m186 -3 c18 -44 18 -45 -8 -45 -41 0
-49 12 -36 48 16 41 26 40 44 -3z m-798 -37 c7 -7 12 -16 12 -21 0 -12 -201
-107 -227 -107 -28 0 -36 13 -20 33 10 14 196 105 218 106 3 1 10 -4 17 -11z
m1604 -9 c43 -12 78 -24 78 -28 0 -16 -33 -52 -45 -47 -8 3 -15 -8 -18 -31 -4
-21 -27 -60 -60 -101 -29 -37 -68 -86 -86 -110 -19 -24 -56 -55 -85 -69 -43
-23 -64 -27 -133 -27 -45 0 -85 3 -89 7 -4 3 6 27 20 51 18 31 35 48 54 52 61
13 89 27 127 60 37 33 38 35 14 30 -19 -4 -29 -1 -33 10 -6 16 -40 16 -78 0
-17 -8 -17 -8 -33 67 -4 19 -21 30 -90 57 -129 50 -114 76 51 89 207 16 321
13 406 -10z m-519 -86 c29 -9 19 -20 -27 -32 -24 -6 -51 -13 -60 -17 -24 -9
-19 14 9 42 18 17 32 23 43 19 9 -4 25 -10 35 -12z m-398 -17 c47 -20 46 -49
-2 -75 -37 -19 -43 -13 -43 39 0 28 2 50 5 50 3 0 21 -7 40 -14z m1151 -11
c10 -16 14 -34 10 -50 -10 -38 -75 -135 -91 -135 -8 0 -40 -27 -72 -59 -63
-64 -163 -116 -237 -123 -86 -7 -39 51 61 76 90 23 106 35 139 102 22 46 28
71 28 130 1 83 -1 81 88 83 51 1 59 -2 74 -24z m-186 -75 c0 -67 -35 -109 -99
-117 l-45 -6 20 25 c10 14 39 53 64 87 25 33 48 61 53 61 4 0 7 -22 7 -50z
m-608 12 c-53 -27 -54 -27 -68 -7 -14 19 -13 20 23 26 21 3 52 7 68 7 27 1 25
-2 -23 -26z m-427 -28 c12 -5 4 -14 -34 -40 -28 -19 -53 -34 -57 -34 -9 0 5
52 18 67 11 14 46 17 73 7z m-485 -10 c0 -29 -67 -80 -93 -71 -7 2 5 12 25 22
36 18 37 20 21 37 -15 17 -14 18 15 18 18 0 32 -3 32 -6z m245 -25 c4 -11 5
-22 3 -24 -2 -3 -48 -23 -102 -45 -106 -44 -128 -43 -105 6 12 23 29 33 99 56
103 33 97 33 105 7z m116 -48 c-6 -23 -69 -70 -93 -71 -5 0 13 27 39 60 47 61
68 65 54 11z m657 23 c-12 -12 -26 -15 -52 -10 -58 11 -53 26 11 26 53 0 56
-1 41 -16z m-434 -30 c23 -59 -19 -94 -115 -94 -38 0 -69 3 -69 8 0 9 149 100
166 101 7 1 15 -6 18 -15z m178 -21 c34 -30 49 -176 21 -204 -10 -10 -151 -34
-158 -27 -3 3 13 23 35 46 52 55 63 122 34 196 -6 17 -4 18 22 12 16 -4 37
-14 46 -23z m281 0 c9 -8 -175 -143 -185 -136 -13 7 -9 61 5 66 9 4 9 8 -2 15
-11 8 5 16 60 32 41 12 79 23 84 25 17 6 31 5 38 -2z m2071 -2 c7 -10 -179
-163 -187 -155 -9 10 84 125 117 145 33 20 61 24 70 10z m-2454 -76 c0 -41 -2
-75 -4 -75 -2 0 -12 -3 -20 -6 -14 -5 -15 -2 -7 18 6 16 4 37 -5 63 -11 35
-11 42 3 57 27 30 33 21 33 -57z m-2097 -13 c-10 -7 -30 -20 -45 -28 -24 -12
-28 -12 -28 -1 0 8 9 26 20 40 18 23 24 25 46 15 24 -11 25 -13 7 -26z m1887
-27 c0 -3 -40 -25 -90 -50 -49 -25 -90 -43 -90 -40 0 16 38 60 65 76 26 17
115 27 115 14z m771 -23 c-22 -41 -50 -55 -128 -63 -111 -11 -137 -10 -83 5
25 7 56 19 70 26 31 17 121 49 138 50 9 0 10 -5 3 -18z m-652 -13 c59 -21 26
-48 -57 -46 -28 1 -52 3 -52 5 0 7 56 51 66 52 6 0 25 -5 43 -11z m543 -113
c2 -10 -114 -155 -123 -156 -10 0 -52 120 -45 128 8 8 146 41 159 38 5 -1 9
-5 9 -10z m-446 -5 c-3 -5 -22 -16 -42 -26 -34 -16 -37 -16 -56 2 -22 20 -29
17 90 31 7 1 11 -2 8 -7z m219 -57 c24 -17 55 -111 45 -139 -15 -45 -146 -76
-377 -90 -88 -6 -112 -4 -128 8 -25 19 -18 26 31 34 26 4 49 18 73 43 27 28
57 44 117 64 45 15 90 36 100 48 49 55 91 64 139 32z m-295 -16 c0 -7 -10 -26
-23 -41 l-22 -28 -24 24 -23 25 29 16 c34 19 63 20 63 4z m-112 -54 l37 -15
-30 -25 c-58 -48 -105 -67 -156 -62 l-48 5 20 -28 20 -28 -53 -30 c-120 -69
-186 -7 -92 87 27 27 39 33 59 28 21 -5 25 -3 25 14 0 23 45 47 110 60 55 12
68 11 108 -6z m519 -175 c32 -30 53 -78 53 -124 l0 -36 -157 6 c-289 11 -462
30 -592 65 -22 6 -41 15 -41 19 0 13 138 32 305 41 113 7 170 15 230 34 99 31
164 29 202 -5z m833 -118 c0 -13 -12 -16 -226 -55 -263 -48 -453 -66 -484 -46
-28 18 10 30 97 30 109 0 244 15 438 50 88 15 163 28 168 29 4 1 7 -3 7 -8z
m-1780 -23 c0 -20 -164 -168 -168 -152 -5 21 58 102 103 135 43 30 65 36 65
17z m475 -18 c44 -6 175 -14 291 -19 116 -4 219 -13 228 -18 16 -9 16 -11 2
-23 -25 -20 -354 -7 -476 19 -116 25 -188 49 -150 50 14 1 61 -4 105 -9z m-45
-54 c150 -32 281 -46 429 -46 66 0 126 -3 135 -6 20 -8 21 -53 1 -118 -19 -63
-49 -110 -87 -138 -27 -18 -29 -23 -14 -28 15 -5 9 -17 -41 -81 -62 -76 -163
-177 -243 -241 -65 -52 -191 -134 -219 -143 -13 -4 -111 -4 -218 0 -192 7
-195 8 -190 29 3 11 19 77 37 146 17 69 34 139 38 155 10 39 35 42 118 15 36
-12 68 -19 71 -16 10 10 -8 21 -74 46 l-62 22 29 37 c58 72 83 146 88 258 5
110 6 112 56 93 25 -9 37 2 16 15 -14 9 -12 25 3 25 6 0 64 -11 127 -24z
m-990 -14 c0 -5 -15 -17 -34 -27 -40 -22 -38 -35 5 -35 33 0 34 -3 18 -66 -8
-32 -16 -43 -25 -40 -45 18 -46 16 -15 -17 l33 -35 -48 -25 c-96 -48 -174 -44
-174 8 0 24 28 47 125 101 14 8 23 28 29 65 4 30 13 60 18 67 12 13 68 17 68
4z m238 -35 c8 -10 0 -33 -34 -92 -53 -93 -61 -102 -94 -107 -36 -4 -38 32 -4
90 63 109 74 122 98 122 13 0 28 -6 34 -13z m512 -157 c0 -44 -23 -92 -65
-139 -50 -55 -67 -54 -59 2 9 54 28 94 67 135 39 41 57 41 57 2z m-1030 -69
c0 -5 -4 -21 -10 -35 -8 -21 -16 -26 -45 -26 -38 0 -44 14 -25 51 8 13 21 19
45 19 19 0 35 -4 35 -9z m480 -95 c0 -2 -9 -24 -20 -50 -20 -44 -30 -53 -43
-40 -9 10 35 94 50 94 7 0 13 -2 13 -4z m217 -25 c8 -4 5 -14 -10 -33 -22 -26
-23 -26 -60 -11 -41 17 -43 31 -6 50 22 12 47 10 76 -6z m173 -81 c0 -21 -63
-236 -77 -263 -7 -15 -25 -33 -38 -39 -26 -12 -75 -4 -75 13 0 26 66 165 94
197 20 22 30 43 28 59 -3 17 3 26 20 32 31 13 48 13 48 1z m-786 -32 c3 -13 6
-33 6 -44 0 -12 10 -28 22 -36 l22 -14 -23 -47 c-43 -88 -118 -122 -172 -78
-21 17 -22 21 -11 58 7 22 12 54 12 71 0 25 5 33 25 38 17 4 31 18 40 40 11
28 19 34 43 34 22 0 31 -6 36 -22z m211 -15 c-8 -47 -11 -49 -30 -33 -20 17
-19 40 3 56 28 22 35 16 27 -23z m309 -25 c4 -17 -10 -46 -52 -110 -80 -122
-90 -118 -46 16 26 78 52 116 78 116 7 0 16 -10 20 -22z m96 -74 c-13 -57 -34
-94 -55 -94 -20 0 -19 36 4 86 16 36 49 69 59 60 1 -2 -2 -25 -8 -52z m-235
26 c3 -5 -13 -38 -36 -72 -51 -77 -48 -73 -55 -66 -6 7 68 148 78 148 4 0 10
-4 13 -10z m-855 -70 c0 -5 -11 -17 -24 -25 -26 -17 -82 -17 -80 0 3 25 104
49 104 25z m114 -87 c3 -10 8 -34 11 -54 8 -42 -12 -64 -48 -55 -30 7 -159 91
-158 102 1 8 55 15 163 22 18 1 28 -4 32 -15z m506 -75 c0 -34 -32 -98 -49
-98 -17 0 -41 12 -41 21 0 5 9 9 20 9 23 0 24 4 9 32 -9 17 -7 24 17 44 38 31
44 30 44 -8z m296 -22 c-8 -24 -34 -77 -59 -118 -24 -40 -51 -86 -60 -102
l-15 -30 -7 33 c-17 77 34 203 98 241 51 31 58 27 43 -24z m212 38 l31 -6 -71
-141 -70 -141 -30 33 c-30 34 -33 56 -13 106 8 19 6 18 -17 -2 -26 -25 -38
-29 -38 -13 0 12 70 120 78 120 2 0 2 -14 0 -32 l-5 -32 21 26 c12 14 29 39
38 57 18 32 26 35 76 25z m359 -20 c35 -3 65 -9 67 -13 8 -12 -476 -243 -487
-232 -9 9 89 206 121 244 13 15 29 17 126 12 61 -3 139 -8 173 -11z m-1502
-11 c19 -9 35 -23 35 -30 0 -16 -3 -16 -45 1 -19 8 -35 22 -35 30 0 20 1 20
45 -1z m-78 -42 l32 -49 -62 -15 c-34 -9 -63 -15 -64 -13 -7 7 40 126 50 126
7 0 26 -22 44 -49z m493 -28 c0 -24 -54 -92 -80 -101 -21 -8 -36 -25 -52 -56
-26 -54 -54 -72 -43 -29 14 58 62 128 109 161 47 31 66 39 66 25z m-493 -82
c-4 -17 -13 -46 -21 -65 -14 -33 -17 -35 -48 -30 -18 4 -36 9 -40 13 -10 9 81
111 99 111 12 0 14 -7 10 -29z m783 14 c0 -22 -22 -65 -34 -66 -6 -1 -16 -1
-22 0 -6 0 -10 -21 -10 -54 1 -43 -4 -59 -20 -76 -27 -27 -53 -16 -28 12 14
16 15 23 4 48 -11 27 -10 34 11 59 13 16 32 44 41 61 18 32 58 44 58 16z
m-632 -112 l-3 -38 -17 32 c-10 18 -18 40 -18 50 0 10 8 30 18 43 l17 25 3
-37 c2 -21 2 -55 0 -75z m883 2 c16 -9 27 -20 24 -24 -5 -9 -90 -41 -107 -41
-10 0 8 37 30 63 18 21 16 21 53 2z m9 -92 c-5 -10 -46 -56 -90 -103 l-80 -85
16 55 c26 88 45 112 111 136 50 18 56 17 43 -3z m-226 -81 c8 -14 -16 -82 -30
-82 -9 0 -10 10 -3 38 5 20 9 40 9 45 0 10 18 9 24 -1z m-734 -69 c0 -5 -10
-24 -22 -43 l-23 -35 -3 28 c-2 16 2 35 9 43 12 15 39 19 39 7z m534 -139 c23
-9 19 -24 -15 -64 -24 -29 -31 -32 -39 -20 -14 21 -12 64 2 78 13 13 28 15 52
6z m-640 -104 c5 -5 2 -19 -7 -34 -16 -24 -16 -26 22 -58 l40 -34 -35 -54
c-36 -59 -40 -82 -21 -118 l13 -23 26 20 c14 12 29 33 33 48 7 29 52 83 68 83
5 0 7 -30 5 -67 -3 -50 -14 -91 -42 -155 -21 -49 -44 -88 -50 -88 -7 0 -29 33
-51 73 -21 39 -76 139 -122 221 -46 82 -83 150 -83 152 0 2 17 4 38 4 39 0 62
16 75 52 6 16 9 16 44 2 21 -9 42 -20 47 -24z m231 -320 l36 -71 -47 -60 c-40
-53 -75 -79 -104 -79 -21 0 -19 58 4 125 36 107 57 155 67 155 5 0 25 -32 44
-70z m80 -82 c-11 -49 -31 -82 -65 -112 -33 -28 -67 -36 -53 -13 31 50 109
156 116 157 5 0 5 -15 2 -32z m-209 -152 c23 -17 23 -17 -41 -44 -65 -27 -84
-13 -37 29 36 33 50 35 78 15z"/>
<path d="M2 3335 c0 -16 2 -22 5 -12 2 9 2 23 0 30 -3 6 -5 -1 -5 -18z"/>
</g>
</svg>
